<svg xmlns="http://www.w3.org/2000/svg" xmlns:xlink="http://www.w3.org/1999/xlink" width="122" height="80.802" viewBox="0 0 122 80.802">
  <defs>
    <clipPath id="clip-path">
      <path id="Path_34" data-name="Path 34" d="M0-118.139H122v-80.8H0Z" transform="translate(0 198.941)" fill="#005792"/>
    </clipPath>
  </defs>
  <g id="Group_45" data-name="Group 45" transform="translate(0 198.941)">
    <path id="Path_5" data-name="Path 5" d="M44.243-34.475h.918v-2.244h-.918Z" transform="translate(-26.273 -96.333)" fill="#005792"/>
    <path id="Path_6" data-name="Path 6" d="M48.336-34.926h1.179v-2.379H48.336Z" transform="translate(-28.704 -95.985)" fill="#005792"/>
    <path id="Path_7" data-name="Path 7" d="M53.372-35.383h1.439V-37.9H53.372Z" transform="translate(-31.694 -95.631)" fill="#005792"/>
    <path id="Path_8" data-name="Path 8" d="M59.677-35.835h1.7v-2.654h-1.7Z" transform="translate(-35.438 -95.282)" fill="#005792"/>
    <path id="Path_9" data-name="Path 9" d="M66.611-36.29H68.57v-2.792H66.611Z" transform="translate(-39.556 -94.93)" fill="#005792"/>
    <path id="Path_10" data-name="Path 10" d="M74.8-36.747h2.222v-2.927H74.8Z" transform="translate(-44.42 -94.579)" fill="#005792"/>
    <path id="Path_11" data-name="Path 11" d="M83.646-40.26h2.48V-37.2h-2.48Z" transform="translate(-49.672 -94.231)" fill="#005792"/>
    <path id="Path_12" data-name="Path 12" d="M93.742-40.847h2.74v3.2h-2.74Z" transform="translate(-55.667 -93.882)" fill="#005792"/>
    <path id="Path_13" data-name="Path 13" d="M104.787-41.439h3V-38.1h-3Z" transform="translate(-62.226 -93.531)" fill="#005792"/>
    <path id="Path_14" data-name="Path 14" d="M119.562-38.891h2.168v-4.5h-2.168Z" transform="translate(-71 -92.371)" fill="#005792"/>
    <path id="Path_15" data-name="Path 15" d="M127.971-38.891h2.168v-4.5h-2.168Z" transform="translate(-75.994 -92.371)" fill="#005792"/>
    <path id="Path_16" data-name="Path 16" d="M145.617-41.524h1.466v-1.463h-1.466Z" transform="translate(-86.473 -92.611)" fill="#005792"/>
    <path id="Path_17" data-name="Path 17" d="M145.617-36.14h1.466V-37.6h-1.466Z" transform="translate(-86.473 -95.81)" fill="#005792"/>
    <path id="Path_18" data-name="Path 18" d="M145.617-30.747h1.466v-1.461h-1.466Z" transform="translate(-86.473 -99.012)" fill="#005792"/>
    <path id="Path_19" data-name="Path 19" d="M253.574-34.475h.916v-2.244h-.916Z" transform="translate(-150.582 -96.333)" fill="#005792"/>
    <path id="Path_20" data-name="Path 20" d="M248.84-34.926h1.179v-2.379H248.84Z" transform="translate(-147.77 -95.985)" fill="#005792"/>
    <path id="Path_21" data-name="Path 21" d="M243.158-35.383H244.6V-37.9h-1.439Z" transform="translate(-144.396 -95.631)" fill="#005792"/>
    <path id="Path_22" data-name="Path 22" d="M236.218-35.835h1.7v-2.654h-1.7Z" transform="translate(-140.275 -95.282)" fill="#005792"/>
    <path id="Path_23" data-name="Path 23" d="M228.637-36.29h1.957v-2.792h-1.957Z" transform="translate(-135.773 -94.93)" fill="#005792"/>
    <path id="Path_24" data-name="Path 24" d="M219.8-36.747h2.22v-2.927H219.8Z" transform="translate(-130.528 -94.579)" fill="#005792"/>
    <path id="Path_25" data-name="Path 25" d="M210.326-40.26h2.48V-37.2h-2.48Z" transform="translate(-124.899 -94.231)" fill="#005792"/>
    <path id="Path_26" data-name="Path 26" d="M199.583-40.847h2.74v3.2h-2.74Z" transform="translate(-118.52 -93.882)" fill="#005792"/>
    <path id="Path_27" data-name="Path 27" d="M187.9-41.439h3V-38.1h-3Z" transform="translate(-111.581 -93.531)" fill="#005792"/>
    <path id="Path_28" data-name="Path 28" d="M175.178-38.891h2.168v-4.5h-2.168Z" transform="translate(-104.027 -92.371)" fill="#005792"/>
    <path id="Path_29" data-name="Path 29" d="M166.763-38.891h2.166v-4.5h-2.166Z" transform="translate(-99.03 -92.371)" fill="#005792"/>
    <path id="Path_30" data-name="Path 30" d="M150.852-41.524h1.463v-1.463h-1.463Z" transform="translate(-89.581 -92.611)" fill="#005792"/>
    <path id="Path_31" data-name="Path 31" d="M150.852-36.14h1.463V-37.6h-1.463Z" transform="translate(-89.581 -95.81)" fill="#005792"/>
    <path id="Path_32" data-name="Path 32" d="M150.852-30.747h1.463v-1.461h-1.463Z" transform="translate(-89.581 -99.012)" fill="#005792"/>
    <g id="Group_44" data-name="Group 44" transform="translate(0 -198.941)" clip-path="url(#clip-path)">
      <g id="Group_43" data-name="Group 43" transform="translate(0 0)">
        <path id="Path_33" data-name="Path 33" d="M-173.29-104.39c-4.761,8.638-24.814,5.448-41.889.827h31.741v-2.34h-1.132v-7.165l-.786-.273c-.532-.184-1.078-.364-1.63-.54v-10.538c11.98,7.918,16.488,14.968,13.7,20.028m-54.261-1.513v-8.28H-234.2v8.28h-40.644V-111.4c10.359-3.42,24.755-5.088,43.966-5.088s33.609,1.667,43.968,5.088v5.493Zm-1.063,0h-4.52v-7.219h4.52Zm-59.651,4.859c-5.532-6.4,2.613-14.919,13.5-22.462v9.625c-.552.177-1.1.356-1.63.54l-.788.273v7.165h-1.13v2.34h30.123c-16.623,5.871-34.088,9.451-40.077,2.519m14.565-26.349c.2-.064.425-.13.658-.2v1.7l-.658.211Zm-9.112-19.194c1.868-4.147,12.962-5.24,27.463-3.312a120.424,120.424,0,0,0,3.84,11.739c-3.781,1.92-8.451,4.4-13.256,7.236-2.868.69-5.395,1.375-7.317,1.935-8.341-6.5-12.832-12.932-10.73-17.6m32.308-25.831c9.618-3.138,20.91,9.055,29.391,21.4-2.991,1.041-5.883,2.124-8.591,3.185v-3.077h-.638v-2.762h-1.063v2.762h-.638v3.16a8.417,8.417,0,0,0-2.878.918,186.965,186.965,0,0,0-19.2-4.926c-2.163-9.419-2.49-18.666,3.619-20.657m36.826,33.327q-2.251-.932-4.621-1.871-2.184-.866-4.368-1.679a10.642,10.642,0,0,0-4.589-4.4c2.318-.8,4.746-1.606,7.226-2.377,2.411,3.614,4.567,7.187,6.352,10.332m31.176-12c2.7,6.276-3.506,13.62-12.7,20.5q-7.1-3.691-16.326-7.6c-1.9-3.425-4.3-7.5-7.047-11.675,15.81-4.8,33.133-8.054,36.074-1.225m-14.872,22.847v-1.677c.842.2,1.658.4,2.436.6v1.665c-.773-.194-1.586-.393-2.436-.589m-22.845-5.009v1.66c-.4-.024-.808-.054-1.216-.078v-1.758q.6.081,1.216.177m7.192.439v1.883q-2.346-.272-4.852-.484v-1.809c1.569.076,3.2.219,4.852.41m2.333-.771c-2.45-.344-4.881-.594-7.184-.7v-.941c-.827-.15-1.65-.285-2.461-.405a18.165,18.165,0,0,0-1.7-5.836q1.407.523,2.807,1.076,3.244,1.289,6.263,2.568c.869,1.559,1.63,2.991,2.276,4.243m3.253,1.579v1.829c-1.448-.223-2.958-.435-4.52-.626v-1.881c1.5.192,3.015.422,4.52.678m5.085.965v1.743c-1.282-.243-2.622-.483-4.022-.71v-1.812c1.36.243,2.708.506,4.022.778m3.916.864v1.692q-1.366-.305-2.853-.6v-1.726c.974.209,1.93.425,2.853.638m-10.5-3.148c-.533-1.053-1.164-2.256-1.886-3.58q6.35,2.759,11.641,5.468c-3.06-.695-6.4-1.365-9.755-1.888m-51.517,2.509v1.726q-1.484.3-2.853.6v-1.692c.923-.214,1.878-.43,2.853-.638m5.085-1v1.812c-1.4.226-2.74.467-4.022.71v-1.743c1.313-.273,2.659-.535,4.022-.778m5.584-.864v1.881q-2.346.287-4.52.626v-1.829c1.5-.255,3.02-.486,4.52-.678m.044-1.076c-3.951.5-8,1.26-11.707,2.072,3.744-2.08,7.322-3.924,10.347-5.424.486,1.247.948,2.377,1.36,3.352m12.029-10.794c-2.416,1.029-4.474,1.942-6.04,2.647-1.171.528-3.479,1.606-6.475,3.106-1.169-3.238-2.4-7.015-3.383-10.853A152.679,152.679,0,0,1-236.2-146a10.137,10.137,0,0,0-1.517,1.449m-1.54,10.983c.509-.064,1-.121,1.483-.172v1.94c-.5.022-.992.047-1.483.071Zm-4.618.346v1.809q-2.5.21-4.852.484v-1.883c1.655-.191,3.285-.334,4.852-.41m3.556-.206v1.758c-.408.024-.813.054-1.216.078v-1.66q.619-.1,1.216-.177m-1.093-2.205q-1.215.181-2.463.405v.941c-1.453.071-2.963.2-4.5.368-.452-1.122-.95-2.406-1.471-3.811,3.121-1.527,5.512-2.62,6.659-3.138,1.1-.491,2.473-1.08,4.076-1.733-.024.044-.049.086-.074.13a18.046,18.046,0,0,0-2.232,6.838m3.811-.474c-.457.044-.923.1-1.4.152.378-2.362,1.876-6.728,4.525-8.734a15.931,15.931,0,0,0-3.123,8.582m2.374,2.136v2.08q-.748.019-1.483.049v-2c.52-.047,1.016-.091,1.483-.126m.577-2.389c-.587.042-1.221.091-1.889.15.113-3.4,1.866-7.464,4.214-9.282-1.387,2.065-2.293,5.753-2.325,9.132m1.969,2.234v2.183c-.5.005-.992.015-1.483.025v-2.126c.552-.035,1.051-.061,1.483-.081m1.272-2.387c-.55.013-1.292.037-2.175.089a16.756,16.756,0,0,1,2.175-8.4Zm1.272,2.35v2.212c-.245,0-.493,0-.741,0s-.493,0-.741,0v-2.212c.466-.013.729-.015.741-.015s.277,0,.741.015m2.547.118v2.126c-.491-.01-.985-.019-1.483-.025v-2.183c.432.02.928.047,1.483.081m-.58-2.379c-.884-.052-1.625-.076-2.175-.089v-8.314a16.756,16.756,0,0,1,2.175,8.4m3.126,2.578v2c-.491-.02-.985-.037-1.483-.049v-2.08c.467.035.965.078,1.483.126m-.174-2.365c-.668-.059-1.3-.108-1.889-.15-.029-3.378-.935-7.066-2.322-9.132,2.347,1.82,4.1,5.883,4.211,9.282m2.718,2.642v1.839c-.491-.025-.983-.049-1.481-.071v-1.94c.479.052.972.108,1.481.172m-1.653-2.539a15.95,15.95,0,0,0-3.123-8.582c2.649,2.006,4.147,6.372,4.523,8.734-.476-.054-.943-.108-1.4-.152m-42.66,8.454v-1.665c.778-.2,1.594-.4,2.436-.6v1.677q-1.274.295-2.436.589m-2.669.707v-1.667q.766-.21,1.606-.43v1.662c-.56.147-1.093.29-1.606.435m-2.5.724v-1.684c.444-.132.926-.27,1.439-.413v1.672c-.506.147-.987.288-1.439.425m82.653,2.569v9.08q-.435-.121-.877-.238v-7.533c-.422-.125-.9-.258-1.431-.4v7.565c-.562-.138-1.132-.275-1.712-.405v-7.59q-.751-.18-1.6-.366v7.612q-.844-.177-1.709-.339v-7.639c-.562-.115-1.151-.233-1.763-.348v7.67c-.563-.1-1.13-.192-1.709-.28v-7.708q-.932-.165-1.927-.331v7.754c-.563-.081-1.132-.154-1.709-.228v-7.8c-.68-.1-1.377-.209-2.092-.309v7.857c-.562-.062-1.134-.121-1.709-.18v-7.909q-1.1-.147-2.257-.282v7.98q-.847-.074-1.709-.14V-126.2q-1.19-.129-2.424-.246v8.11c-.562-.035-1.134-.069-1.709-.1V-126.6c-.85-.071-1.712-.14-2.588-.2v8.235c-.562-.025-1.134-.047-1.709-.069v-8.279q-1.356-.085-2.753-.15v8.341c-.565-.015-1.132-.027-1.709-.039v-8.373c-.963-.034-1.932-.064-2.917-.083v8.412c-.621-.007-1.245-.012-1.878-.015v-8.425c-.553-.007-1.105-.01-1.665-.01s-1.112,0-1.662.01v8.425q-.95,0-1.878.015v-8.412c-.985.019-1.957.049-2.919.083v8.373c-.575.012-1.142.024-1.709.039v-8.341q-1.392.066-2.753.15v8.279c-.572.022-1.144.044-1.709.069V-126.8c-.874.061-1.738.13-2.586.2v8.164c-.574.032-1.147.066-1.709.1v-8.11q-1.234.118-2.424.246v8.034q-.861.066-1.709.14V-126c-.766.091-1.519.184-2.256.282v7.909q-.866.088-1.709.18v-7.857c-.714.1-1.412.206-2.094.309v7.8c-.575.074-1.144.147-1.709.228v-7.754c-.66.111-1.3.221-1.925.331v7.705c-.58.091-1.147.186-1.709.282v-7.67c-.611.115-1.2.233-1.763.348v7.639c-.58.108-1.147.221-1.709.339v-7.612c-.562.123-1.1.246-1.6.366v7.59c-.58.13-1.149.268-1.709.405v-7.565c-.533.143-1.014.275-1.434.4v7.533c-.295.078-.587.157-.879.238v-9.08a143.857,143.857,0,0,1,41.55-5.959,143.828,143.828,0,0,1,41.55,5.959m-4.55-5.39q.84.221,1.606.43v1.667c-.513-.145-1.048-.287-1.606-.435Zm2.669.724c.511.143.992.28,1.436.413v1.684c-.452-.137-.933-.277-1.436-.425Zm2.5.729c.233.071.454.138.658.2v1.706l-.658-.211Zm1.721,1.613v-2.188l-.371-.118c-1.424-.457-3.757-1.142-6.632-1.888,10.519-7.433,18.568-15.766,14.752-22.239-5.122-8.692-23.92-4.714-40.438.9-9.011-13.353-21.278-27.071-31.581-23.778-7.494,2.4-7.111,12.893-4.651,23.2-15.525-2.836-27.206-2.175-29.484,3.31-2.153,5.186,2.7,12.663,12.125,20.149-.422.125-.8.245-1.13.351l-.368.118v3.592c-11.783,8.147-21.03,17.5-15.314,24.35,8.393,10.057,28.919,3.776,45.565-3.337H-220.3c18.661,5.854,43.266,11.094,49.446.3,3.391-5.923-1.409-13.706-16.134-22.717" transform="translate(291.814 175.789)" fill="#005792"/>
      </g>
    </g>
  </g>
</svg>
